# xmcd
#
# Track frame offsets:
#	150
#	12050
#	27167
#	39187
#	51302
#	64010
#	75502
#	87752
#	99040
#	110395
#	120995
#	135165
#
# Disc length: 1972
#
# Revision: 3
# Processed by: cddbd v1.5.1PL0 Copyright (c) Steve Scherf et al.
# Submitted via: FreeRIP 2.80 
# Normalized: r2:DSETVAR1
#
DISCID=7807b20c
DTITLE=Various Artist - Country Schmuse Songs
DYEAR=1900
DGENRE=Country
TTITLE0=Dave Dudley - The most Beautiful Girl
TTITLE1=Bobby Bare - For the Good Times
TTITLE2=Buddy Meredith - I Pledge Allegiance
TTITLE3=Rick Pilgreen - How Come it Took so Long to Say Goodbye
TTITLE4=Tom Overland - Morning Sun
TTITLE5=Dave Dudley - Sentimental Journey
TTITLE6=Bobby Bare - Roses are Red My Love
TTITLE7=David Price - The Lonesome Truckdriver' Waltz
TTITLE8=Ferlin Husky - My Home Town
TTITLE9=George Kent - You Wouldn't Want Me Now
TTITLE10=Tom Overland - I Love Your Lovely Smile
TTITLE11=Dave Dudley - Have it Your Way
EXTD=
EXTT0=
EXTT1=
EXTT2=
EXTT3=
EXTT4=
EXTT5=
EXTT6=
EXTT7=
EXTT8=
EXTT9=
EXTT10=
EXTT11=
PLAYORDER=
